<svg width="40" height="48" viewBox="0 0 40 48" fill="none" xmlns="http://www.w3.org/2000/svg">
<g clip-path="url(#clip0_1_4)">
<path fill-rule="evenodd" clip-rule="evenodd" d="M31.9714 19.8925C34.0789 22.3304 35.3539 25.4248 35.3843 28.8019C35.4147 32.1789 34.1585 35.3885 32.0405 37.8743L31.8569 38.0892L31.8061 37.8189C31.7619 37.5902 31.7114 37.3576 31.6524 37.125C30.5404 32.7178 27.0138 28.9603 21.2375 25.9397C17.3366 23.9054 15.0919 21.4389 14.483 18.6176C14.0895 16.794 14.3532 14.957 14.8803 13.3806C15.4076 11.8062 16.2004 10.4825 16.878 9.68508L19.092 7.10365C19.4798 6.65021 20.215 6.64428 20.6108 7.09138L31.9735 19.8924L31.9714 19.8925ZM35.4852 17.3025L20.3406 0.242271C20.0513 -0.0832437 19.5161 -0.0789229 19.2326 0.251216L4.39929 17.5535L4.35137 17.6112C1.6228 20.8426 0.00797545 24.9341 0.0479107 29.3735C0.14091 39.7119 9.17111 48.0209 20.2156 47.9318C31.2601 47.8426 40.1395 39.389 40.0465 29.0506C40.0065 24.6111 38.3183 20.5464 35.5321 17.3614L35.483 17.3045L35.4852 17.3025ZM8.00924 20.0307L9.33515 18.4814L9.37773 18.7654C9.41134 18.9903 9.4534 19.2151 9.50178 19.4418C10.4081 23.7026 13.5388 27.2343 18.7435 29.9474C23.2688 32.3144 25.9162 35.0561 26.6976 38.0794C27.0249 39.3408 27.0909 40.5845 26.9638 41.6738L26.956 41.741L26.8909 41.7711C24.8666 42.7176 22.5856 43.2595 20.1716 43.2789C11.7013 43.3473 4.77626 36.9766 4.70493 29.0475C4.67431 25.6429 5.91221 22.5064 8.00499 20.0267L8.00924 20.0307Z" fill="url(#paint0_linear_1_4)"/>
</g>
<defs>
<linearGradient id="paint0_linear_1_4" x1="19.7844" y1="0.000873358" x2="20.1714" y2="47.9321" gradientUnits="userSpaceOnUse">
<stop stop-color="#E44857"/>
<stop offset="0.5" stop-color="#A332F0"/>
<stop offset="1" stop-color="#7F52FF"/>
</linearGradient>
<clipPath id="clip0_1_4">
<rect width="40" height="48" fill="white"/>
</clipPath>
</defs>
</svg>
